<svg viewBox="0 0 587 446" xmlns="http://www.w3.org/2000/svg"><linearGradient id="a" gradientTransform="matrix(1 0 0 -1 0 448)" gradientUnits="userSpaceOnUse" x1="7.02" x2="602.29" y1="33.46" y2="377.15"><stop offset="0" stop-color="#0096ff"/><stop offset="1" stop-color="#f644d1"/></linearGradient><path d="M38.93 89.74v138.73L0 273.83l38.93 32.67v139.88l304.52-53.61 142.19 51.8V367.7l61.53-11.06V217.75l39.43-45.86-39.43-32.83V0L38.93 89.9zm20.46 205.54L28.7 269.71l30.69-35.63V106.73l467.16-82.65v126.2L557.4 176l-30.85 35.8v127.69L465 350.54V415l-119.41-43.51L59.39 422zm406.29-219.4v14a13.73 13.73 0 0 1-2 7.59l-18.64 31.67-18.8-25.56c-1.32-1.82-1.65-4.46-1.65-6.6V83.14l-20.29 3.63v14.85c0 3.95.66 7.91 3 11.21l27.38 37.28v34.15l20.46-3.63v-34.14l27.38-46.36a23.16 23.16 0 0 0 3-11.88V72.58l-20 3.47zM329.92 99.8v102.77l69.94-12.37v-18.64l-49.48 8.74v-84l-20.46 3.7zm-60 10.39l-29 5.12c-16.33 3-25.57 13.85-25.57 30.35v50.15c0 16.82 9.74 25.07 26.4 22.1l29-5.11c16.33-3 25.57-13.86 25.57-30.35V132.3c0-14.68-7.26-22.77-20-22.77a28.23 28.23 0 0 0-6.27.66zm-34.15 83.14V142c0-4.95 2.31-7.59 7.09-8.41l26.4-4.62c4.45-.83 6.43.66 6.43 5.28v51.8c0 4.94-2.31 7.58-7.26 8.41L242 199.11a8.28 8.28 0 0 1-2 .16c-3.28 0-4.27-1.98-4.27-5.94zm-75.06-63.84v39.92l-39.92 7.1v-39.92l-20.45 3.63V243l20.45-3.63v-44.06l39.92-7.09v44l20.46-3.63V125.86zM376 214.12l-43.77 123.72 21.12-3.79 43.71-123.73L376 214zM269.88 240l-28.38 5c-15.5 2.8-25.57 12.2-25.57 28.54v7.42c0 11.21 5.12 18.8 16.66 19.79L272 304c2.64.17 3.63 1.32 3.63 4v10.39c0 4.79-3 6.6-7.42 7.43l-26.56 4.62c-4 .66-6.6.49-6.6-4.13v-14.2l-20.13 3.62v12.87c0 16.66 10.4 22.93 26.07 20.13l29.53-5.28c15.67-2.81 25.73-12.21 25.73-28.54v-12.37c0-11.38-6.6-17.49-17.65-18.48l-38.77-3.3c-3.46-.33-3.63-1.32-3.63-4.62V270c0-4.78 3-6.6 7.43-7.42l25.4-4.46c4-.66 6.6-.49 6.6 4.13v15.17l20.12-3.63V260c0-14-7.75-20.79-19.63-20.79a30.79 30.79 0 0 0-6.43.66zm-109.37 19.3v77.36c0 5.12-2.31 7.76-7.26 8.58l-26.39 4.62c-4.62.83-6.44-.66-6.44-5.44v-16.64l-20.29 3.63v15.34c0 16.82 9.73 25.07 26.4 22.1l29-5.11c16.33-3 25.57-13.86 25.57-30.35v-77.7l-20.46 3.63zm304.18 31.84v18l20.46-3.63v-18zm-34.8 6.1v18l20.45-3.63v-18zm-34.81 6.1v18l20.46-3.63v-18z" fill="url(#a)" fill-rule="evenodd"/></svg>